<svg width="512" height="512" viewBox="0 0 512 512" fill="none" xmlns="http://www.w3.org/2000/svg">
  <defs>
    <linearGradient id="kp-grad" x1="0" y1="0" x2="512" y2="512" gradientUnits="userSpaceOnUse">
      <stop offset="0%" stop-color="#ff9500"/>
      <stop offset="100%" stop-color="#e65100"/>
    </linearGradient>
    <linearGradient id="kp-bg" x1="0" y1="0" x2="512" y2="512" gradientUnits="userSpaceOnUse">
      <stop offset="0%" stop-color="#1e293b"/>
      <stop offset="100%" stop-color="#0f172a"/>
    </linearGradient>
  </defs>
  <rect width="512" height="512" rx="112" fill="url(#kp-bg)"/>
  <g transform="translate(256, 268)">
    <path d="M0,-140 C30,-90 30,-30 0,0 C-30,-30 -30,-90 0,-140Z" fill="url(#kp-grad)" opacity="0.95"/>
    <path d="M0,-140 C30,-90 30,-30 0,0 C-30,-30 -30,-90 0,-140Z" fill="url(#kp-grad)" opacity="0.85" transform="rotate(60)"/>
    <path d="M0,-140 C30,-90 30,-30 0,0 C-30,-30 -30,-90 0,-140Z" fill="url(#kp-grad)" opacity="0.85" transform="rotate(-60)"/>
    <path d="M0,-140 C30,-90 30,-30 0,0 C-30,-30 -30,-90 0,-140Z" fill="url(#kp-grad)" opacity="0.7" transform="rotate(120)"/>
    <path d="M0,-140 C30,-90 30,-30 0,0 C-30,-30 -30,-90 0,-140Z" fill="url(#kp-grad)" opacity="0.7" transform="rotate(-120)"/>
    <path d="M0,-140 C30,-90 30,-30 0,0 C-30,-30 -30,-90 0,-140Z" fill="url(#kp-grad)" opacity="0.6" transform="rotate(180)"/>
    <circle r="28" fill="#ff9500" opacity="0.9"/>
    <circle r="12" fill="#0f172a" opacity="0.8"/>
  </g>
</svg>
